<svg width="24" height="24" viewBox="0 0 24 24" fill="none" xmlns="http://www.w3.org/2000/svg">
<path fill-rule="evenodd" clip-rule="evenodd" d="M11.9994 1.69C12.2648 1.68989 12.5193 1.79525 12.707 1.9829L18.3668 7.64266C18.3668 7.64274 18.3667 7.64259 18.3668 7.64266C19.6259 8.90107 20.4838 10.5048 20.8315 12.2507C21.1793 13.9967 21.0014 15.8066 20.3204 17.4515C19.6394 19.0964 18.4858 20.5023 17.0056 21.4915C15.5255 22.4807 13.7852 23.0087 12.0049 23.0087C10.2246 23.0087 8.48431 22.4807 7.00414 21.4915C5.52397 20.5023 4.37042 19.0964 3.68941 17.4515C3.00839 15.8066 2.83051 13.9967 3.17825 12.2507C3.52594 10.505 4.38348 8.90161 5.64241 7.64326C5.64261 7.64306 5.64221 7.64346 5.64241 7.64326L11.2922 1.98352C11.4796 1.79571 11.7341 1.69012 11.9994 1.69ZM12.0005 4.10484L7.05676 9.05734C6.07733 10.0361 5.41019 11.2834 5.13973 12.6414C4.86926 13.9994 5.00761 15.4071 5.53729 16.6864C6.06697 17.9658 6.96417 19.0593 8.11542 19.8287C9.26666 20.5981 10.6202 21.0087 12.0049 21.0087C13.3896 21.0087 14.7431 20.5981 15.8944 19.8287C17.0456 19.0593 17.9428 17.9658 18.4725 16.6864C19.0022 15.4071 19.1405 13.9994 18.87 12.6414C18.5996 11.2834 17.9324 10.0361 16.953 9.05734L12.0005 4.10484Z" fill="white"/>
</svg>
