<svg width="20" height="20" viewBox="0 0 20 20" fill="none" xmlns="http://www.w3.org/2000/svg">
<mask id="mask0_4532_1952" style="mask-type:alpha" maskUnits="userSpaceOnUse" x="0" y="0" width="20" height="20">
<rect width="20" height="20" fill="#D9D9D9"/>
</mask>
<g mask="url(#mask0_4532_1952)">
<path d="M11.125 5.25521L12.25 6.46675C12.3627 6.58831 12.5191 6.66011 12.6848 6.66636C12.8504 6.67261 13.0118 6.6128 13.1333 6.50008C13.2549 6.38736 13.3267 6.23098 13.3329 6.06532C13.3392 5.89966 13.2794 5.73831 13.1667 5.61675L11.125 5.25521ZM11.125 5.25521V4.71675H10.625L10.2586 5.05697L10.625 5.45156V7.00008L11.125 5.25521ZM10.9914 4.37652L10.125 3.44348V4.71675V7.00008H9.875V4.71675V3.44348L9.0086 4.37652L7.3836 6.12652L7.38337 6.12678C7.36082 6.1511 7.32953 6.16546 7.29638 6.16672C7.26324 6.16797 7.23096 6.156 7.20664 6.13345C7.18232 6.1109 7.16795 6.07961 7.1667 6.04646C7.16545 6.01335 7.1774 5.98109 7.19992 5.95677C7.19993 5.95675 7.19995 5.95674 7.19997 5.95672L9.90806 3.04031L9.90833 3.04002C9.92003 3.0274 9.93422 3.01733 9.94999 3.01044C9.96576 3.00355 9.98279 3 10 3C10.0172 3 10.0342 3.00355 10.05 3.01044C10.0658 3.01733 10.08 3.02739 10.0917 3.04002L10.0919 3.04031L12.8 5.95672C12.8001 5.95678 12.8001 5.95683 12.8002 5.95689C12.8226 5.98119 12.8345 6.0134 12.8333 6.04646C12.832 6.07961 12.8177 6.1109 12.7934 6.13345C12.769 6.156 12.7368 6.16797 12.7036 6.16672C12.6705 6.16546 12.6392 6.1511 12.6166 6.12678L12.6164 6.12652L10.9914 4.37652ZM8.875 8.00008V11.8751C8.875 12.1735 8.99353 12.4596 9.2045 12.6706C9.41548 12.8816 9.70163 13.0001 10 13.0001C10.2984 13.0001 10.5845 12.8816 10.7955 12.6706C11.0065 12.4596 11.125 12.1735 11.125 11.8751V8.00008H13.125C13.4897 8.00008 13.8394 8.14495 14.0973 8.40281C14.3551 8.66067 14.5 9.01041 14.5 9.37508V15.6251C14.5 15.8056 14.4644 15.9844 14.3953 16.1513C14.3262 16.3181 14.225 16.4697 14.0973 16.5974C13.9696 16.725 13.818 16.8263 13.6512 16.8954C13.4844 16.9645 13.3056 17.0001 13.125 17.0001H6.875C6.69443 17.0001 6.51563 16.9645 6.34881 16.8954L6.15747 17.3574L6.34881 16.8954C6.18199 16.8263 6.03041 16.725 5.90273 16.5974C5.77505 16.4697 5.67377 16.3181 5.60467 16.1513L5.14273 16.3426L5.60467 16.1513C5.53557 15.9844 5.5 15.8056 5.5 15.6251V9.37508C5.5 9.01041 5.64487 8.66067 5.90273 8.40281C6.16059 8.14495 6.51033 8.00008 6.875 8.00008H8.875Z" fill="white" stroke="white"/>
</g>
</svg>
