<svg width="24" height="24" viewBox="0 0 24 24" fill="none" xmlns="http://www.w3.org/2000/svg">
<mask id="mask0_3553_13016" style="mask-type:alpha" maskUnits="userSpaceOnUse" x="0" y="0" width="24" height="24">
<rect width="24" height="24" fill="#D9D9D9"/>
</mask>
<g mask="url(#mask0_3553_13016)">
<path d="M20 6.74834C20 5.38705 18.911 4.29348 17.5553 4.29348C16.1997 4.29348 15.1107 5.38701 15.1107 6.74834C15.1107 7.77496 15.7329 8.68981 16.6886 9.04691L16.6664 9.20319C16.5776 9.98434 16.5108 10.6092 16.0887 11.2116C15.7776 11.6579 15.222 11.8811 14.2219 11.948C13.6664 11.9927 13.0663 12.0149 12.5107 12.0372C11.9551 12.0595 11.3329 12.0819 10.7328 12.1264C9.66609 12.1933 8.33265 12.4166 7.51042 13.4654C7.35478 13.6663 7.1993 13.8895 7.08813 14.1125L7.08798 7.32882C8.37694 6.94946 9.13254 5.61043 8.77692 4.29382C8.42146 2.9772 7.06583 2.21833 5.77683 2.59771C4.48783 2.97708 3.73227 4.31609 4.08789 5.63271C4.31018 6.45837 4.9546 7.08318 5.77683 7.3287V16.6792C4.48787 17.0585 3.73227 18.3976 4.08789 19.7142C4.4435 21.0308 5.79913 21.7673 7.11028 21.4102C8.42142 21.0531 9.15484 19.6918 8.79922 18.3752C8.64358 17.8173 8.28812 17.3263 7.79921 16.9916C7.88803 15.9205 8.04367 15.0055 8.57711 14.3137C9.06602 13.6889 9.99941 13.5326 10.8439 13.488C11.4217 13.4434 12.0218 13.4211 12.5774 13.3988C13.133 13.3766 13.733 13.3542 14.3329 13.3096C15.1997 13.2427 16.4441 13.0419 17.1776 11.993C17.7998 11.1003 17.9109 10.2075 17.9998 9.35965L18.022 9.15884C19.1776 8.93561 20 7.93125 20 6.74853L20 6.74834ZM5.3325 4.96316C5.3325 4.33831 5.82142 3.84735 6.44367 3.84735C7.06593 3.84735 7.55485 4.33831 7.55485 4.96316C7.55485 5.58802 7.06593 6.07897 6.44367 6.07897C5.82142 6.07897 5.3325 5.58802 5.3325 4.96316ZM6.44367 20.1382C5.82142 20.1382 5.3325 19.6472 5.3325 19.0224C5.3325 18.3975 5.82142 17.9065 6.44367 17.9065C7.06593 17.9065 7.55485 18.3975 7.55485 19.0224C7.55485 19.6472 7.06593 20.1382 6.44367 20.1382ZM17.5554 7.86427C16.9332 7.86427 16.4442 7.37331 16.4442 6.74846C16.4442 6.12361 16.9332 5.63265 17.5554 5.63265C18.1777 5.63265 18.6666 6.12361 18.6666 6.74846C18.6666 7.37331 18.1777 7.86427 17.5554 7.86427Z" fill="white"/>
</g>
</svg>
