<svg width="20" height="20" viewBox="0 0 20 20" fill="none" xmlns="http://www.w3.org/2000/svg">
<mask id="mask0_4532_1974" style="mask-type:alpha" maskUnits="userSpaceOnUse" x="0" y="0" width="20" height="20">
<rect width="20" height="20" fill="#D9D9D9"/>
</mask>
<g mask="url(#mask0_4532_1974)">
<path d="M13.8264 15.4166H12.2918C12.1261 15.4166 11.9671 15.4824 11.8499 15.5996C11.7327 15.7169 11.6668 15.8758 11.6668 16.0416C11.6668 16.2073 11.7327 16.3663 11.8499 16.4835C11.9671 16.6007 12.1261 16.6666 12.2918 16.6666H16.0418L13.8264 15.4166ZM13.8264 15.4166L14.1799 15.7701L14.5335 15.4166V14.9166H14.0335L11.8502 12.7333L13.8264 15.4166ZM15.9168 5.46659V4.25948L15.0633 5.11303L12.3886 7.78775C12.3654 7.80751 12.3358 7.81818 12.3052 7.81764C12.2728 7.81707 12.2419 7.80395 12.219 7.78105C12.1961 7.75815 12.183 7.72725 12.1824 7.69487C12.1819 7.66431 12.1926 7.63467 12.2123 7.61152L14.8871 4.93681L15.7406 4.08325H14.5335H12.2918C12.2587 4.08325 12.2269 4.07008 12.2034 4.04664C12.18 4.0232 12.1668 3.9914 12.1668 3.95825C12.1668 3.9251 12.18 3.89331 12.2034 3.86986C12.2269 3.84642 12.2587 3.83325 12.2918 3.83325H16.0418C16.075 3.83325 16.1068 3.84642 16.1302 3.86986C16.1537 3.8933 16.1668 3.9251 16.1668 3.95825V7.70825C16.1668 7.74141 16.1537 7.7732 16.1302 7.79664C16.1068 7.82008 16.075 7.83325 16.0418 7.83325C16.0087 7.83325 15.9769 7.82008 15.9534 7.79664C15.93 7.7732 15.9168 7.74141 15.9168 7.70825V5.46659ZM3.8335 16.0436V16.0416V12.2916C3.8335 12.2584 3.84667 12.2266 3.87011 12.2032L3.51656 11.8496L3.87011 12.2032C3.89356 12.1798 3.92535 12.1666 3.9585 12.1666C3.99165 12.1666 4.02345 12.1798 4.04689 12.2032L4.40044 11.8496L4.04689 12.2032C4.07033 12.2266 4.0835 12.2584 4.0835 12.2916V14.5333V15.7404L4.93705 14.8868L7.61177 12.2121C7.63492 12.1923 7.66456 12.1817 7.69512 12.1822C7.7275 12.1828 7.7584 12.1959 7.7813 12.2188C7.8042 12.2417 7.81732 12.2726 7.81789 12.305C7.81843 12.3355 7.80776 12.3652 7.788 12.3883L5.11328 15.063L4.25973 15.9166H5.46683H7.7085C7.74165 15.9166 7.77345 15.9298 7.79689 15.9532C7.82033 15.9766 7.8335 16.0084 7.8335 16.0416C7.8335 16.0747 7.82033 16.1065 7.79689 16.13C7.77345 16.1534 7.74165 16.1666 7.7085 16.1666L3.9585 16.1666L3.95649 16.1666C3.94032 16.1667 3.9243 16.1635 3.90934 16.1574C3.89439 16.1512 3.88081 16.1421 3.86938 16.1307C3.85794 16.1193 3.84888 16.1057 3.84273 16.0907C3.83657 16.0758 3.83343 16.0598 3.8335 16.0436ZM14.5335 15.9166H15.7406L14.8871 15.063L12.2037 12.3797L12.1975 12.3735L12.191 12.3674C12.1787 12.356 12.1689 12.3422 12.1621 12.3269L11.7053 12.5304L12.1621 12.3269C12.1552 12.3115 12.1516 12.295 12.1513 12.2782C12.151 12.2614 12.1541 12.2447 12.1603 12.2292C12.1666 12.2136 12.176 12.1995 12.1879 12.1876C12.1997 12.1757 12.2139 12.1664 12.2294 12.1601L12.0422 11.6965L12.2294 12.1601C12.245 12.1538 12.2617 12.1507 12.2784 12.151C12.2952 12.1513 12.3118 12.155 12.3271 12.1618C12.3425 12.1686 12.3563 12.1785 12.3677 12.1908L12.3737 12.1972L12.3799 12.2035L15.0633 14.8868L15.9168 15.7404V14.5333V12.2916C15.9168 12.2584 15.93 12.2266 15.9534 12.2032C15.9769 12.1798 16.0087 12.1666 16.0418 12.1666C16.075 12.1666 16.1068 12.1798 16.1302 12.2032C16.1537 12.2266 16.1668 12.2584 16.1668 12.2916L16.1668 16.0416L16.1668 16.0436C16.1669 16.0598 16.1638 16.0758 16.1576 16.0907C16.1515 16.1057 16.1424 16.1193 16.131 16.1307C16.1195 16.1421 16.1059 16.1512 16.091 16.1574C16.076 16.1635 16.06 16.1667 16.0438 16.1666H16.0418H12.2918C12.2587 16.1666 12.2269 16.1534 12.2034 16.13C12.18 16.1065 12.1668 16.0747 12.1668 16.0416C12.1668 16.0084 12.18 15.9766 12.2034 15.9532C12.2269 15.9298 12.2587 15.9166 12.2918 15.9166H14.5335ZM4.93705 5.11303L4.0835 4.25948V5.46659V7.70825C4.0835 7.7414 4.07033 7.7732 4.04689 7.79664C4.02345 7.82008 3.99165 7.83325 3.9585 7.83325C3.92535 7.83325 3.89355 7.82008 3.87011 7.79664C3.84667 7.7732 3.8335 7.7414 3.8335 7.70825V3.95825C3.8335 3.9251 3.84667 3.89331 3.87011 3.86986C3.89355 3.84642 3.92535 3.83325 3.9585 3.83325H7.7085C7.74165 3.83325 7.77345 3.84642 7.79689 3.86986C7.82033 3.89331 7.8335 3.9251 7.8335 3.95825C7.8335 3.9914 7.82033 4.0232 7.79689 4.04664C7.77345 4.07008 7.74165 4.08325 7.7085 4.08325H5.46683H4.25973L5.11328 4.93681L7.78799 7.61151C7.80775 7.63467 7.81843 7.6643 7.81789 7.69487C7.81732 7.72725 7.8042 7.75815 7.7813 7.78105C7.7584 7.80395 7.7275 7.81707 7.69512 7.81764C7.66455 7.81818 7.63492 7.80751 7.61176 7.78774L4.93705 5.11303Z" fill="white" stroke="white"/>
</g>
</svg>
