<svg width="32" height="32" viewBox="0 0 32 32" fill="none" xmlns="http://www.w3.org/2000/svg">
<mask id="mask0_4547_2863" style="mask-type:alpha" maskUnits="userSpaceOnUse" x="0" y="0" width="32" height="32">
<rect width="32" height="32" fill="#D9D9D9"/>
</mask>
<g mask="url(#mask0_4547_2863)">
<path fill-rule="evenodd" clip-rule="evenodd" d="M15.9998 2.6665C8.63584 2.6665 2.6665 8.64517 2.6665 16.0225C2.6665 21.9225 6.4865 26.9292 11.7852 28.6945C12.4518 28.8172 12.6945 28.4052 12.6945 28.0505C12.6945 27.7345 12.6838 26.8932 12.6772 25.7798C8.96784 26.5865 8.18517 23.9892 8.18517 23.9892C7.57984 22.4452 6.70517 22.0345 6.70517 22.0345C5.4945 21.2078 6.79717 21.2238 6.79717 21.2238C8.1345 21.3172 8.8385 22.5998 8.8385 22.5998C10.0278 24.6398 11.9598 24.0505 12.7185 23.7092C12.8412 22.8465 13.1852 22.2585 13.5665 21.9252C10.6065 21.5878 7.49317 20.4412 7.49317 15.3238C7.49317 13.8665 8.01317 12.6732 8.86517 11.7398C8.72784 11.4025 8.2705 10.0438 8.99584 8.2065C8.99584 8.2065 10.1158 7.8465 12.6625 9.5745C13.7502 9.27786 14.8724 9.12676 15.9998 9.12517C17.1332 9.1305 18.2732 9.2785 19.3385 9.5745C21.8838 7.8465 23.0012 8.20517 23.0012 8.20517C23.7292 10.0438 23.2705 11.4025 23.1345 11.7398C23.9878 12.6732 24.5052 13.8665 24.5052 15.3238C24.5052 20.4545 21.3865 21.5838 18.4172 21.9145C18.8958 22.3265 19.3212 23.1412 19.3212 24.3878C19.3212 26.1718 19.3052 27.6132 19.3052 28.0505C19.3052 28.4078 19.5452 28.8238 20.2225 28.6932C22.8776 27.8026 25.1856 26.1002 26.8205 23.8266C28.4553 21.5529 29.3343 18.8229 29.3332 16.0225C29.3332 8.64517 23.3625 2.6665 15.9998 2.6665Z" fill="#CDCDCD"/>
</g>
</svg>
