<svg width="20" height="20" viewBox="0 0 20 20" fill="none" xmlns="http://www.w3.org/2000/svg">
<mask id="mask0_4532_1957" style="mask-type:alpha" maskUnits="userSpaceOnUse" x="0" y="0" width="20" height="20">
<rect width="20" height="20" fill="#D9D9D9"/>
</mask>
<g mask="url(#mask0_4532_1957)">
<path d="M13.5389 11.3836L13.545 11.377L13.5508 11.3702C13.7432 11.1475 13.8407 10.8583 13.8224 10.5646C13.804 10.2709 13.6713 9.99606 13.4527 9.79905C13.2341 9.60203 12.947 9.49851 12.653 9.51069C12.3594 9.52286 12.0822 9.64942 11.8807 9.86328C11.8804 9.86359 11.8801 9.8639 11.8798 9.86422L11.125 10.6598V8H13.125C13.4897 8 13.8394 8.14487 14.0973 8.40273C14.3551 8.66059 14.5 9.01033 14.5 9.375V15.625C14.5 15.8056 14.4644 15.9844 14.3953 16.1512C14.3262 16.318 14.225 16.4696 14.0973 16.5973C13.9696 16.725 13.818 16.8262 13.6512 16.8953C13.4844 16.9644 13.3056 17 13.125 17H6.875C6.69443 17 6.51563 16.9644 6.34881 16.8953L6.15747 17.3573L6.34881 16.8953C6.18199 16.8262 6.03041 16.725 5.90273 16.5973C5.77505 16.4696 5.67377 16.318 5.60467 16.1512L5.14273 16.3425L5.60467 16.1512C5.53557 15.9844 5.5 15.8056 5.5 15.625V9.375C5.5 9.01033 5.64487 8.66059 5.90273 8.40273C6.16059 8.14487 6.51033 8 6.875 8H8.875V10.6598L8.12541 9.86975C8.02919 9.76101 7.9128 9.6719 7.78265 9.60736C7.64851 9.54086 7.50245 9.50179 7.35302 9.49246C7.20358 9.48313 7.05379 9.50372 6.91243 9.55302C6.77106 9.60232 6.64095 9.67935 6.52973 9.77959C6.41852 9.87982 6.32843 10.0012 6.26474 10.1368C6.20106 10.2723 6.16506 10.4191 6.15886 10.5687C6.15266 10.7183 6.17639 10.8676 6.22864 11.0079C6.2807 11.1477 6.36002 11.2757 6.46199 11.3845C6.46239 11.3849 6.46278 11.3854 6.46318 11.3858L9.16729 14.2979C9.27225 14.4135 9.40013 14.5059 9.54279 14.5694C9.68672 14.6334 9.84248 14.6665 10 14.6665C10.1575 14.6665 10.3133 14.6334 10.4572 14.5694C10.5999 14.5059 10.7277 14.4135 10.8327 14.2979L13.5389 11.3836ZM10.125 3.125V7H9.875V3.125C9.875 3.09185 9.88817 3.06005 9.91161 3.03661C9.93505 3.01317 9.96685 3 10 3C10.0332 3 10.0649 3.01317 10.0884 3.03661C10.1118 3.06005 10.125 3.09185 10.125 3.125Z" fill="white" stroke="white"/>
</g>
</svg>
