<svg width="18" height="18" viewBox="0 0 18 18" fill="none" xmlns="http://www.w3.org/2000/svg">
<path d="M15.75 5.24999H6C5.55 5.24999 5.25 4.94999 5.25 4.49999C5.25 4.04999 5.55 3.74999 6 3.74999H15.75C16.2 3.74999 16.5 4.04999 16.5 4.49999C16.5 4.94999 16.2 5.24999 15.75 5.24999Z" fill="white"/>
<path d="M15.75 9.74999H6C5.55 9.74999 5.25 9.44999 5.25 8.99999C5.25 8.54999 5.55 8.24999 6 8.24999H15.75C16.2 8.24999 16.5 8.54999 16.5 8.99999C16.5 9.44999 16.2 9.74999 15.75 9.74999Z" fill="white"/>
<path d="M15.75 14.25H6C5.55 14.25 5.25 13.95 5.25 13.5C5.25 13.05 5.55 12.75 6 12.75H15.75C16.2 12.75 16.5 13.05 16.5 13.5C16.5 13.95 16.2 14.25 15.75 14.25Z" fill="white"/>
<path d="M2.25 5.24999C2.175 5.24999 2.175 5.24999 2.1 5.24999C2.025 5.24999 2.025 5.24999 1.95 5.17499C1.875 5.17499 1.875 5.09999 1.8 5.09999C1.725 5.09999 1.725 5.02499 1.725 5.02499C1.65 4.94999 1.575 4.87499 1.575 4.79999C1.5 4.72499 1.5 4.57499 1.5 4.49999C1.5 4.42499 1.5 4.27499 1.575 4.19999C1.65 4.12499 1.65 4.04999 1.725 3.97499C1.95 3.74999 2.25 3.67499 2.55 3.82499C2.625 3.89999 2.7 3.89999 2.775 3.97499C2.925 4.12499 3 4.27499 3 4.49999C3 4.72499 2.925 4.87499 2.775 5.02499C2.625 5.17499 2.475 5.24999 2.25 5.24999Z" fill="white"/>
<path d="M2.25 9.74999C2.025 9.74999 1.875 9.67499 1.725 9.52499C1.575 9.37499 1.5 9.22499 1.5 8.99999C1.5 8.92499 1.5 8.92499 1.5 8.84999C1.5 8.77499 1.5 8.77499 1.575 8.69999C1.575 8.62499 1.65 8.62499 1.65 8.54999C1.65 8.47499 1.725 8.47499 1.725 8.47499C1.8 8.39999 1.875 8.32499 1.95 8.32499C2.25 8.17499 2.55 8.24999 2.775 8.47499L2.85 8.54999C2.85 8.62499 2.925 8.62499 2.925 8.69999C2.925 8.77499 2.925 8.77499 3 8.84999C3 8.92499 3 8.92499 3 8.99999C3 9.22499 2.925 9.37499 2.775 9.52499C2.625 9.67499 2.475 9.74999 2.25 9.74999Z" fill="white"/>
<path d="M2.25 14.25C2.025 14.25 1.875 14.175 1.725 14.025C1.575 13.875 1.5 13.725 1.5 13.5C1.5 13.425 1.5 13.275 1.575 13.2C1.65 13.125 1.65 13.05 1.725 12.975C2.025 12.675 2.475 12.675 2.775 12.975C2.925 13.125 3 13.275 3 13.5C3 13.725 2.925 13.875 2.775 14.025C2.625 14.175 2.475 14.25 2.25 14.25Z" fill="white"/>
</svg>
