<svg width="20" height="20" viewBox="0 0 20 20" fill="none" xmlns="http://www.w3.org/2000/svg">
<mask id="mask0_4532_1947" style="mask-type:alpha" maskUnits="userSpaceOnUse" x="0" y="0" width="20" height="20">
<rect width="20" height="20" fill="#D9D9D9"/>
</mask>
<g mask="url(#mask0_4532_1947)">
<path d="M7.16686 5.62508C7.16686 5.59193 7.18003 5.56013 7.20347 5.53669C7.22692 5.51325 7.25871 5.50008 7.29186 5.50008H16.0419C16.075 5.50008 16.1068 5.51325 16.1303 5.53669C16.1537 5.56013 16.1669 5.59193 16.1669 5.62508C16.1669 5.65823 16.1537 5.69003 16.1303 5.71347C16.1068 5.73691 16.075 5.75008 16.0419 5.75008H7.29186C7.25871 5.75008 7.22691 5.73691 7.20347 5.71347C7.18003 5.69003 7.16686 5.65823 7.16686 5.62508ZM4.40256 5.86912L4.75612 6.22267L4.40256 5.86912C4.34005 5.93163 4.25527 5.96675 4.16686 5.96675H4.15853C4.07012 5.96675 3.98534 5.93163 3.92283 5.86912C3.86031 5.80661 3.8252 5.72182 3.8252 5.63341V5.62508C3.8252 5.53668 3.86031 5.45189 3.92283 5.38938C3.98534 5.32687 4.07012 5.29175 4.15853 5.29175H4.16686C4.25527 5.29175 4.34005 5.32687 4.40256 5.38938C4.46508 5.45189 4.5002 5.53668 4.5002 5.62508V5.63341C4.5002 5.72182 4.46508 5.80661 4.40256 5.86912ZM7.16686 10.0001C7.16686 9.96693 7.18003 9.93514 7.20347 9.91169C7.22692 9.88825 7.25871 9.87508 7.29186 9.87508H16.0419C16.075 9.87508 16.1068 9.88825 16.1302 9.91169C16.1537 9.93514 16.1669 9.96693 16.1669 10.0001C16.1669 10.0332 16.1537 10.065 16.1303 10.0885C16.1068 10.1119 16.075 10.1251 16.0419 10.1251H7.29186C7.25871 10.1251 7.22692 10.1119 7.20347 10.0885C7.18003 10.065 7.16686 10.0332 7.16686 10.0001ZM7.16686 14.3751C7.16686 14.3419 7.18003 14.3101 7.20347 14.2867C7.22692 14.2633 7.25871 14.2501 7.29186 14.2501H16.0419C16.075 14.2501 16.1068 14.2633 16.1302 14.2867C16.1537 14.3101 16.1669 14.3419 16.1669 14.3751C16.1669 14.4082 16.1537 14.44 16.1302 14.4635C16.1068 14.4869 16.075 14.5001 16.0419 14.5001H7.29186C7.25871 14.5001 7.22692 14.4869 7.20347 14.4635C7.18003 14.44 7.16686 14.4082 7.16686 14.3751ZM3.8252 14.3751C3.8252 14.2867 3.86031 14.2019 3.92283 14.1394C3.98534 14.0769 4.07012 14.0417 4.15853 14.0417H4.16686C4.25527 14.0417 4.34005 14.0769 4.40256 14.1394C4.46508 14.2019 4.5002 14.2867 4.5002 14.3751V14.3834C4.5002 14.4718 4.46508 14.5566 4.40256 14.6191C4.34005 14.6816 4.25527 14.7167 4.16686 14.7167H4.15853C4.07012 14.7167 3.98534 14.6816 3.92283 14.6191C3.86031 14.5566 3.8252 14.4718 3.8252 14.3834V14.3751ZM3.8252 10.0001C3.8252 9.91168 3.86031 9.82689 3.92283 9.76438C3.98534 9.70187 4.07012 9.66675 4.15853 9.66675H4.16686C4.25527 9.66675 4.34005 9.70187 4.40256 9.76438C4.46508 9.82689 4.5002 9.91168 4.5002 10.0001V10.0084C4.5002 10.0968 4.46508 10.1816 4.40256 10.2441C4.34005 10.3066 4.25527 10.3417 4.16686 10.3417H4.15853C4.07012 10.3417 3.98534 10.3066 3.92283 10.2441C3.86031 10.1816 3.8252 10.0968 3.8252 10.0084V10.0001Z" fill="white" stroke="white"/>
</g>
</svg>
