<svg width="24" height="24" viewBox="0 0 24 24" fill="none" xmlns="http://www.w3.org/2000/svg">
<mask id="mask0_3553_12615" style="mask-type:alpha" maskUnits="userSpaceOnUse" x="0" y="0" width="24" height="24">
<rect width="24" height="24" fill="#D9D9D9"/>
</mask>
<g mask="url(#mask0_3553_12615)">
<path d="M21.3895 15.7022C21.2025 15.7807 20.9935 15.7899 20.8004 15.7279C20.6072 15.6662 20.4423 15.5374 20.3352 15.3649C19.2763 13.6469 18.0753 12.0204 16.7452 10.5029C16.5765 10.3143 16.3303 10.2144 16.0781 10.232C15.6386 10.2524 15.2108 10.0877 14.8978 9.77815L14.2283 9.10789C13.9186 8.79515 13.7541 8.36674 13.7749 7.92695C13.792 7.67446 13.6922 7.42834 13.5041 7.25924C11.9871 5.92871 10.3623 4.72696 8.64611 3.66611C8.47375 3.55918 8.34507 3.39411 8.28338 3.20082C8.22168 3.00753 8.23059 2.79833 8.30882 2.61122C8.38238 2.40562 8.52612 2.23292 8.7148 2.12385C8.90348 2.01459 9.12481 1.97597 9.33937 2.01459C11.5429 2.40901 13.7891 3.46879 15.8358 5.07775C15.9941 5.19699 16.1928 5.24897 16.3891 5.22266C16.8599 5.16983 17.3291 5.33427 17.6641 5.6695L18.3336 6.33955C18.6681 6.6752 18.8326 7.14451 18.78 7.61576C18.7535 7.81223 18.8057 8.01125 18.925 8.1693C20.5324 10.2176 21.5916 12.4658 21.9857 14.6709C22.0239 14.8854 21.9849 15.107 21.8759 15.2956C21.7667 15.4844 21.5945 15.6284 21.3895 15.7022Z" fill="white"/>
<path d="M15.0522 10.4743L3.8661 21.6694C3.65537 21.8831 3.36705 22.0023 3.06705 22C2.76686 21.9978 2.48042 21.8741 2.27288 21.6575C2.08993 21.4524 1.9924 21.1848 2.00046 20.9098C2.00831 20.635 2.12109 20.3736 2.31571 20.1793L13.5322 8.95323C13.6278 9.13337 13.7495 9.29844 13.8932 9.44293L14.5627 10.1155C14.7067 10.2592 14.872 10.3801 15.0522 10.4743Z" fill="white"/>
<path d="M19.0342 6.48698C18.9367 6.30897 18.8135 6.14645 18.6685 6.0045L17.999 5.3319C17.8548 5.18827 17.6899 5.06754 17.5097 4.97312C17.7102 4.77007 17.9831 4.65486 18.2684 4.65338C18.5536 4.65189 18.8279 4.76413 19.0304 4.96506C19.2328 5.1662 19.3471 5.43969 19.3477 5.72527C19.3486 6.01085 19.2356 6.28482 19.0342 6.48698Z" fill="white"/>
</g>
</svg>
