<svg width="20" height="20" viewBox="0 0 20 20" fill="none" xmlns="http://www.w3.org/2000/svg">
<mask id="mask0_4532_1942" style="mask-type:alpha" maskUnits="userSpaceOnUse" x="0" y="0" width="20" height="20">
<rect width="20" height="20" fill="#ffffff"/>
</mask>
<g mask="url(#mask0_4532_1942)">
<path d="M12.2053 4.04837L12.2052 4.04836C12.1813 4.02548 12.1674 3.99401 12.1666 3.96089C12.1659 3.93184 12.1754 3.9036 12.1931 3.88092L12.2017 3.87194C12.2246 3.84797 12.256 3.83407 12.2891 3.83329C12.3222 3.83251 12.3543 3.84489 12.3783 3.86773C12.3783 3.86774 12.3783 3.86776 12.3783 3.86777L16.9614 8.24253C16.9614 8.24253 16.9614 8.24254 16.9614 8.24254C16.9737 8.25421 16.9834 8.26824 16.99 8.28377L17.4497 8.08708L16.99 8.28378C16.9967 8.29932 17.0001 8.31604 17.0001 8.33295C17.0001 8.34985 16.9967 8.36658 16.99 8.38212L17.4497 8.57881L16.99 8.38212C16.9834 8.39766 16.9736 8.41169 16.9614 8.42337L12.3781 12.7984L12.378 12.7984C12.354 12.8213 12.3219 12.8338 12.2888 12.833C12.2556 12.8322 12.2241 12.8183 12.2012 12.7943C12.1783 12.7703 12.1659 12.7382 12.1666 12.7051C12.1674 12.6719 12.1813 12.6404 12.2053 12.6175L15.6602 9.32007L16.5631 8.45836H15.315H6.97917C5.99013 8.45836 5.0416 8.85126 4.34225 9.55061C3.64289 10.25 3.25 11.1985 3.25 12.1875C3.25 13.1766 3.64289 14.1251 4.34225 14.8245C5.0416 15.5238 5.99013 15.9167 6.97917 15.9167H9.375C9.40815 15.9167 9.43995 15.9299 9.46339 15.9533C9.48683 15.9768 9.5 16.0085 9.5 16.0417C9.5 16.0748 9.48683 16.1066 9.46339 16.1301C9.43995 16.1535 9.40815 16.1667 9.375 16.1667H6.97917C5.92383 16.1667 4.91171 15.7475 4.16547 15.0012C3.41923 14.255 3 13.2429 3 12.1875C3 11.1322 3.41923 10.1201 4.16547 9.37384C4.91171 8.6276 5.92383 8.20836 6.97917 8.20836H15.315H16.5628L15.6603 7.34671L12.2053 4.04837Z" fill="#FFFFFF" stroke="#FFFFFF"/>
</g>
</svg>
