<svg width="18" height="18" viewBox="0 0 18 18" fill="none" xmlns="http://www.w3.org/2000/svg">
<g clip-path="url(#clip0_344_751)">
<path fill-rule="evenodd" clip-rule="evenodd" d="M17.25 2.25C17.6642 2.25 18 2.58579 18 3V7.5C18 7.91421 17.6642 8.25 17.25 8.25H12.75C12.3358 8.25 12 7.91421 12 7.5C12 7.08579 12.3358 6.75 12.75 6.75H16.5V3C16.5 2.58579 16.8358 2.25 17.25 2.25Z" fill="white"/>
<path fill-rule="evenodd" clip-rule="evenodd" d="M9.84555 3.06094C8.55753 2.87824 7.24503 3.11912 6.10582 3.74727C4.9666 4.37542 4.06241 5.35681 3.52949 6.54355C2.99656 7.7303 2.86378 9.0581 3.15116 10.3269C3.43853 11.5957 4.13048 12.7367 5.12275 13.578C6.11502 14.4193 7.35383 14.9153 8.65253 14.9912C9.95122 15.0672 11.2394 14.719 12.323 13.9992C13.4066 13.2793 14.2269 12.2268 14.6602 11.0002C14.7982 10.6096 15.2267 10.4049 15.6172 10.5428C16.0078 10.6808 16.2126 11.1093 16.0746 11.4998C15.5329 13.0331 14.5075 14.3488 13.153 15.2486C11.7985 16.1484 10.1883 16.5836 8.56492 16.4887C6.94156 16.3937 5.39304 15.7737 4.1527 14.7221C2.91237 13.6705 2.04743 12.2442 1.68821 10.6582C1.329 9.07226 1.49497 7.41251 2.16113 5.92907C2.82728 4.44564 3.95752 3.2189 5.38154 2.43371C6.80555 1.64853 8.44618 1.34743 10.0562 1.5758C11.6624 1.80363 13.1513 2.54607 14.2997 3.69161L17.7641 6.954C18.0656 7.23797 18.0799 7.71263 17.7959 8.01418C17.512 8.31574 17.0373 8.32999 16.7357 8.04602L13.2632 4.77602C13.2577 4.77082 13.2523 4.76554 13.2469 4.76017C12.3273 3.84 11.1336 3.24363 9.84555 3.06094Z" fill="white"/>
</g>
<defs>
<clipPath id="clip0_344_751">
<rect width="18" height="18" fill="white"/>
</clipPath>
</defs>
</svg>
