<svg width="18" height="18" viewBox="0 0 18 18" fill="none" xmlns="http://www.w3.org/2000/svg">
<path fill-rule="evenodd" clip-rule="evenodd" d="M3.75 3C3.55109 3 3.36032 3.07902 3.21967 3.21967C3.07902 3.36032 3 3.55109 3 3.75V14.25C3 14.4489 3.07902 14.6397 3.21967 14.7803C3.36032 14.921 3.55109 15 3.75 15H14.25C14.4489 15 14.6397 14.921 14.7803 14.7803C14.921 14.6397 15 14.4489 15 14.25V6.31066L11.6893 3H3.75ZM2.15901 2.15901C2.58097 1.73705 3.15326 1.5 3.75 1.5H12C12.1989 1.5 12.3897 1.57902 12.5303 1.71967L16.2803 5.46967C16.421 5.61032 16.5 5.80109 16.5 6V14.25C16.5 14.8467 16.2629 15.419 15.841 15.841C15.419 16.2629 14.8467 16.5 14.25 16.5H3.75C3.15326 16.5 2.58097 16.2629 2.15901 15.841C1.73705 15.419 1.5 14.8467 1.5 14.25V3.75C1.5 3.15326 1.73705 2.58097 2.15901 2.15901Z" fill="white"/>
<path fill-rule="evenodd" clip-rule="evenodd" d="M4.5 9.75C4.5 9.33579 4.83579 9 5.25 9H12.75C13.1642 9 13.5 9.33579 13.5 9.75V15.75C13.5 16.1642 13.1642 16.5 12.75 16.5C12.3358 16.5 12 16.1642 12 15.75V10.5H6V15.75C6 16.1642 5.66421 16.5 5.25 16.5C4.83579 16.5 4.5 16.1642 4.5 15.75V9.75Z" fill="white"/>
<path fill-rule="evenodd" clip-rule="evenodd" d="M5.25 1.5C5.66421 1.5 6 1.83579 6 2.25V5.25H11.25C11.6642 5.25 12 5.58579 12 6C12 6.41421 11.6642 6.75 11.25 6.75H5.25C4.83579 6.75 4.5 6.41421 4.5 6V2.25C4.5 1.83579 4.83579 1.5 5.25 1.5Z" fill="white"/>
</svg>
