<svg width="32" height="32" viewBox="0 0 32 32" fill="none" xmlns="http://www.w3.org/2000/svg">
<mask id="mask0_4547_2866" style="mask-type:alpha" maskUnits="userSpaceOnUse" x="0" y="0" width="32" height="32">
<rect width="32" height="32" fill="#D9D9D9"/>
</mask>
<g mask="url(#mask0_4547_2866)">
<path d="M11.0532 27.0013C21.1158 27.0013 26.6198 18.6639 26.6198 11.4346C26.6198 11.1973 26.6198 10.9613 26.6038 10.7279C27.6747 9.95265 28.599 8.99276 29.3332 7.89328C28.3346 8.33595 27.2752 8.62629 26.1905 8.75461C27.3327 8.07069 28.1875 6.99507 28.5958 5.72794C27.5221 6.36512 26.3474 6.81425 25.1225 7.05594C24.2977 6.1783 23.2065 5.59705 22.018 5.40222C20.8295 5.20738 19.6099 5.40981 18.548 5.97817C17.4861 6.54653 16.6413 7.44911 16.1442 8.54616C15.6472 9.64321 15.5257 10.8735 15.7985 12.0466C13.6233 11.9376 11.4953 11.3724 9.5527 10.3876C7.61009 9.40289 5.89627 8.02064 4.5225 6.33061C3.82293 7.53488 3.60862 8.9605 3.92322 10.3172C4.23781 11.674 5.05766 12.8598 6.21584 13.6333C5.34551 13.6081 4.49402 13.3739 3.73317 12.9506V13.0199C3.73369 14.283 4.17103 15.507 4.97103 16.4844C5.77104 17.4618 6.88446 18.1325 8.1225 18.3826C7.31692 18.6022 6.4717 18.6342 5.65184 18.4759C6.00139 19.5632 6.68207 20.5141 7.59867 21.1954C8.51527 21.8768 9.62193 22.2546 10.7638 22.2759C9.62933 23.1674 8.33022 23.8264 6.94081 24.2153C5.55139 24.6043 4.09893 24.7155 2.6665 24.5426C5.16864 26.1484 8.08009 27.0001 11.0532 26.9959" fill="#CDCDCD"/>
</g>
</svg>
