<svg width="18" height="18" viewBox="0 0 18 18" fill="none" xmlns="http://www.w3.org/2000/svg">
<g clip-path="url(#clip0_344_748)">
<path fill-rule="evenodd" clip-rule="evenodd" d="M0.75 2.25C1.16421 2.25 1.5 2.58579 1.5 3V6.75H5.25C5.66421 6.75 6 7.08579 6 7.5C6 7.91421 5.66421 8.25 5.25 8.25H0.75C0.335786 8.25 0 7.91421 0 7.5V3C0 2.58579 0.335786 2.25 0.75 2.25Z" fill="white"/>
<path fill-rule="evenodd" clip-rule="evenodd" d="M7.95402 1.58015C9.56421 1.3536 11.2044 1.65649 12.6275 2.44318C14.0506 3.22988 15.1794 4.45775 15.844 5.9418C16.5085 7.42584 16.6728 9.08567 16.312 10.6712C15.9512 12.2567 15.0849 13.682 13.8436 14.7323C12.6023 15.7827 11.0532 16.4012 9.42988 16.4946C7.80652 16.588 6.19677 16.1514 4.84317 15.2504C3.48957 14.3494 2.46545 13.0329 1.92512 11.4992C1.78748 11.1085 1.9926 10.6803 2.38328 10.5426C2.77396 10.405 3.20224 10.6101 3.33988 11.0008C3.77215 12.2277 4.59144 13.2809 5.67432 14.0017C6.7572 14.7225 8.04501 15.0718 9.34369 14.9971C10.6424 14.9223 11.8816 14.4276 12.8746 13.5873C13.8677 12.747 14.5607 11.6068 14.8494 10.3383C15.138 9.06994 15.0066 7.74208 14.475 6.55484C13.9433 5.3676 13.0402 4.3853 11.9018 3.75595C10.7633 3.12659 9.45115 2.88428 8.163 3.06552C6.87485 3.24675 5.68049 3.84172 4.75988 4.76077C4.75453 4.76612 4.7491 4.77138 4.74358 4.77656L1.26358 8.04656C0.961725 8.3302 0.487081 8.31543 0.203437 8.01358C-0.0802062 7.71172 -0.0654396 7.23707 0.23642 6.95343L3.70837 3.69099C4.85801 2.54685 6.34767 1.80615 7.95402 1.58015Z" fill="white"/>
</g>
<defs>
<clipPath id="clip0_344_748">
<rect width="18" height="18" fill="white"/>
</clipPath>
</defs>
</svg>
