<svg width="20" height="20" viewBox="0 0 20 20" fill="none" xmlns="http://www.w3.org/2000/svg">
<mask id="mask0_4521_2884" style="mask-type:alpha" maskUnits="userSpaceOnUse" x="0" y="0" width="20" height="20">
<rect width="20" height="20" fill="#D9D9D9"/>
</mask>
<g mask="url(#mask0_4521_2884)">
<path d="M4.33989 9.32007L7.79481 12.6175C7.8188 12.6404 7.83271 12.6719 7.83348 12.7051C7.83424 12.7382 7.8218 12.7703 7.7989 12.7943L8.16052 13.1396L7.7989 12.7943C7.77599 12.8183 7.74449 12.8322 7.71133 12.833C7.67816 12.8338 7.64606 12.8213 7.62206 12.7984L7.62201 12.7984L3.03869 8.42337C3.03868 8.42336 3.03868 8.42336 3.03868 8.42335C3.02645 8.41168 3.01673 8.39766 3.01008 8.38212L2.55039 8.57881L3.01008 8.38212C3.00343 8.36658 3 8.34985 3 8.33295C3 8.31604 3.00343 8.29932 3.01008 8.28377C3.01673 8.26824 3.02646 8.25421 3.03868 8.24254C3.03868 8.24254 3.03868 8.24253 3.03869 8.24253L7.62177 3.86777C7.62178 3.86776 7.6218 3.86774 7.62182 3.86773C7.6458 3.84489 7.67786 3.83251 7.71096 3.83329C7.74409 3.83407 7.77555 3.84797 7.79843 3.87194L7.807 3.88092C7.82475 3.9036 7.8342 3.93184 7.83352 3.96089L7.88449 3.96209L7.83351 3.96089C7.83273 3.99402 7.81883 4.02548 7.79486 4.04836L7.79485 4.04837L4.33985 7.34671L3.43726 8.20836H4.6851H13.0209C14.0763 8.20836 15.0884 8.6276 15.8346 9.37384C16.5809 10.1201 17.0001 11.1322 17.0001 12.1875C17.0001 13.2429 16.5809 14.255 15.8346 15.0012C15.0884 15.7475 14.0763 16.1667 13.0209 16.1667H10.6251C10.592 16.1667 10.5602 16.1535 10.5367 16.1301C10.5133 16.1066 10.5001 16.0748 10.5001 16.0417C10.5001 16.0085 10.5133 15.9768 10.5367 15.9533C10.5602 15.9299 10.592 15.9167 10.6251 15.9167H13.0209C14.01 15.9167 14.9585 15.5238 15.6579 14.8245C16.3572 14.1251 16.7501 13.1766 16.7501 12.1875C16.7501 11.1985 16.3572 10.25 15.6579 9.55061C14.9585 8.85126 14.01 8.45836 13.0209 8.45836H4.6851H3.43703L4.33989 9.32007Z" fill="white" stroke="white"/>
</g>
</svg>
