<svg width="20" height="20" viewBox="0 0 20 20" fill="none" xmlns="http://www.w3.org/2000/svg">
<mask id="mask0_4532_1968" style="mask-type:alpha" maskUnits="userSpaceOnUse" x="0" y="0" width="20" height="20">
<rect width="20" height="20" fill="#D9D9D9"/>
</mask>
<g mask="url(#mask0_4532_1968)">
<path d="M7.20312 9.07836C7.22656 9.05492 7.25835 9.04175 7.2915 9.04175H11.0415C11.0747 9.04175 11.1065 9.05492 11.1299 9.07836C11.1533 9.1018 11.1665 9.1336 11.1665 9.16675C11.1665 9.1999 11.1533 9.23169 11.1299 9.25514C11.1065 9.27858 11.0747 9.29175 11.0415 9.29175H7.2915C7.25835 9.29175 7.22656 9.27858 7.20312 9.25514C7.17967 9.23169 7.1665 9.1999 7.1665 9.16675C7.1665 9.1336 7.17967 9.1018 7.20312 9.07836Z" fill="white" stroke="white"/>
<path fill-rule="evenodd" clip-rule="evenodd" d="M9.16683 3.33325C8.23405 3.33333 7.3149 3.5571 6.48646 3.98578C5.65803 4.41446 4.94447 5.03555 4.40566 5.79696C3.86684 6.55837 3.51847 7.4379 3.38977 8.36175C3.26108 9.2856 3.35581 10.2269 3.66601 11.1065C3.97622 11.9862 4.49286 12.7787 5.17259 13.4175C5.85232 14.0562 6.67533 14.5227 7.57257 14.7777C8.46981 15.0327 9.41512 15.0688 10.3292 14.883C11.2433 14.6972 12.0995 14.295 12.826 13.7099L15.6002 16.4833C15.6574 16.5447 15.7264 16.5939 15.803 16.6281C15.8797 16.6622 15.9625 16.6806 16.0464 16.6821C16.1303 16.6836 16.2137 16.6681 16.2915 16.6367C16.3693 16.6053 16.44 16.5585 16.4994 16.4991C16.5587 16.4398 16.6055 16.3691 16.6369 16.2913C16.6684 16.2134 16.6838 16.1301 16.6823 16.0462C16.6808 15.9622 16.6625 15.8795 16.6283 15.8028C16.5941 15.7261 16.5449 15.6571 16.4835 15.5999L13.7102 12.8258C14.4005 11.9687 14.8343 10.9339 14.9615 9.84076C15.0887 8.74765 14.904 7.64085 14.4289 6.64821C13.9538 5.65556 13.2076 4.81756 12.2765 4.23098C11.3454 3.6444 10.2673 3.33318 9.16683 3.33325ZM4.58349 9.16659C4.58349 7.95101 5.06638 6.78522 5.92592 5.92568C6.78546 5.06614 7.95125 4.58325 9.16683 4.58325C10.3824 4.58325 11.5482 5.06614 12.4077 5.92568C13.2673 6.78522 13.7502 7.95101 13.7502 9.16659C13.7502 10.3822 13.2673 11.548 12.4077 12.4075C11.5482 13.267 10.3824 13.7499 9.16683 13.7499C7.95125 13.7499 6.78546 13.267 5.92592 12.4075C5.06638 11.548 4.58349 10.3822 4.58349 9.16659Z" fill="white"/>
</g>
</svg>
