<svg width="20" height="20" viewBox="0 0 20 20" fill="none" xmlns="http://www.w3.org/2000/svg">
<mask id="mask0_4532_1962" style="mask-type:alpha" maskUnits="userSpaceOnUse" x="0" y="0" width="20" height="20">
<rect width="20" height="20" fill="#D9D9D9"/>
</mask>
<g mask="url(#mask0_4532_1962)">
<path d="M9.2915 8.54175V9.04175H9.7915H11.0415C11.0747 9.04175 11.1065 9.05492 11.1299 9.07836C11.1533 9.1018 11.1665 9.1336 11.1665 9.16675C11.1665 9.1999 11.1533 9.23169 11.1299 9.25514C11.1064 9.27858 11.0747 9.29175 11.0415 9.29175H9.7915H9.2915V9.79175V11.0417C9.2915 11.0749 9.27834 11.1067 9.25489 11.1301C9.23145 11.1536 9.19966 11.1667 9.1665 11.1667C9.13335 11.1667 9.10156 11.1536 9.07812 11.1301C9.05467 11.1067 9.0415 11.0749 9.0415 11.0417V9.79175V9.29175H8.5415H7.2915C7.25835 9.29175 7.22656 9.27858 7.20312 9.25514L6.84956 9.60869L7.20312 9.25514C7.17967 9.23169 7.1665 9.1999 7.1665 9.16675C7.1665 9.1336 7.17967 9.1018 7.20312 9.07836C7.22656 9.05492 7.25835 9.04175 7.2915 9.04175H8.5415H9.0415V8.54175V7.29175C9.0415 7.2586 9.05467 7.2268 9.07812 7.20336C9.10156 7.17992 9.13335 7.16675 9.1665 7.16675C9.19966 7.16675 9.23145 7.17992 9.25489 7.20336L9.60532 6.85294L9.25489 7.20336C9.27833 7.2268 9.2915 7.2586 9.2915 7.29175V8.54175Z" fill="white" stroke="white"/>
<path fill-rule="evenodd" clip-rule="evenodd" d="M3.3335 9.16658C3.33357 8.23381 3.55734 7.31465 3.98602 6.48622C4.4147 5.65778 5.0358 4.94423 5.79721 4.40541C6.55862 3.8666 7.43814 3.51823 8.36199 3.38953C9.28585 3.26083 10.2271 3.35556 11.1068 3.66577C11.9865 3.97597 12.7789 4.49261 13.4177 5.17235C14.0565 5.85208 14.5229 6.67508 14.7779 7.57232C15.0329 8.46957 15.0691 9.41488 14.8833 10.329C14.6975 11.243 14.2952 12.0992 13.7102 12.8257L16.4835 15.5999C16.5449 15.6571 16.5942 15.7261 16.6283 15.8028C16.6625 15.8795 16.6808 15.9622 16.6823 16.0461C16.6838 16.1301 16.6684 16.2134 16.6369 16.2912C16.6055 16.3691 16.5587 16.4398 16.4994 16.4991C16.44 16.5585 16.3693 16.6053 16.2915 16.6367C16.2137 16.6681 16.1303 16.6836 16.0464 16.6821C15.9625 16.6806 15.8797 16.6622 15.803 16.6281C15.7264 16.5939 15.6574 16.5447 15.6002 16.4832L12.826 13.7099C11.969 14.4002 10.9341 14.834 9.841 14.9612C8.74789 15.0884 7.6411 14.9038 6.64845 14.4287C5.65581 13.9536 4.8178 13.2074 4.23122 12.2763C3.64465 11.3451 3.33342 10.2671 3.3335 9.16658ZM9.16683 4.58325C7.95125 4.58325 6.78547 5.06613 5.92592 5.92568C5.06638 6.78522 4.5835 7.95101 4.5835 9.16658C4.5835 10.3822 5.06638 11.5479 5.92592 12.4075C6.78547 13.267 7.95125 13.7499 9.16683 13.7499C10.3824 13.7499 11.5482 13.267 12.4077 12.4075C13.2673 11.5479 13.7502 10.3822 13.7502 9.16658C13.7502 7.95101 13.2673 6.78522 12.4077 5.92568C11.5482 5.06613 10.3824 4.58325 9.16683 4.58325Z" fill="white"/>
</g>
</svg>
