<svg width="18" height="18" viewBox="0 0 18 18" fill="none" xmlns="http://www.w3.org/2000/svg">
<path fill-rule="evenodd" clip-rule="evenodd" d="M8.25 3C5.3505 3 3 5.3505 3 8.25C3 11.1495 5.3505 13.5 8.25 13.5C11.1495 13.5 13.5 11.1495 13.5 8.25C13.5 5.3505 11.1495 3 8.25 3ZM1.5 8.25C1.5 4.52208 4.52208 1.5 8.25 1.5C11.9779 1.5 15 4.52208 15 8.25C15 11.9779 11.9779 15 8.25 15C4.52208 15 1.5 11.9779 1.5 8.25Z" fill="white"/>
<path fill-rule="evenodd" clip-rule="evenodd" d="M11.9572 11.9572C12.2501 11.6643 12.7249 11.6643 13.0178 11.9572L16.2803 15.2197C16.5732 15.5126 16.5732 15.9874 16.2803 16.2803C15.9874 16.5732 15.5126 16.5732 15.2197 16.2803L11.9572 13.0178C11.6643 12.7249 11.6643 12.2501 11.9572 11.9572Z" fill="white"/>
<path fill-rule="evenodd" clip-rule="evenodd" d="M8.25 5.25C8.66421 5.25 9 5.58579 9 6V10.5C9 10.9142 8.66421 11.25 8.25 11.25C7.83579 11.25 7.5 10.9142 7.5 10.5V6C7.5 5.58579 7.83579 5.25 8.25 5.25Z" fill="white"/>
<path fill-rule="evenodd" clip-rule="evenodd" d="M5.25 8.25C5.25 7.83579 5.58579 7.5 6 7.5H10.5C10.9142 7.5 11.25 7.83579 11.25 8.25C11.25 8.66421 10.9142 9 10.5 9H6C5.58579 9 5.25 8.66421 5.25 8.25Z" fill="white"/>
</svg>
