<svg width="124" height="24" viewBox="0 0 124 24" fill="none" xmlns="http://www.w3.org/2000/svg">
<g clip-path="url(#clip0_4542_2320)">
<path d="M36.8092 15.3332C36.9055 16.5723 37.4067 17.5558 38.2934 18.3032C39.1801 19.0505 40.3366 19.4243 41.763 19.4243C43.016 19.4243 44.0183 19.1489 44.7893 18.5981C45.5604 18.0475 45.9459 17.2804 45.9459 16.3166C45.9459 15.6283 45.7338 15.0578 45.3098 14.6644C44.8857 14.2514 44.3267 13.9368 43.5942 13.7204C42.8618 13.504 41.8594 13.2681 40.5486 13.032C39.2186 12.7959 38.0813 12.4813 37.1369 12.0879C36.1923 11.6945 35.4213 11.1045 34.8237 10.3177C34.2261 9.51133 33.937 8.4689 33.937 7.17079C33.937 5.97101 34.2455 4.90891 34.8623 3.96482C35.4791 3.02073 36.3272 2.29299 37.4452 1.78161C38.544 1.27023 39.8161 0.994873 41.2426 0.994873C42.7075 0.994873 44.0183 1.27023 45.1748 1.84062C46.3314 2.39134 47.2374 3.15841 47.8928 4.14183C48.5481 5.12526 48.9144 6.22669 48.9722 7.48548H45.6568C45.5411 6.40372 45.0784 5.5383 44.2881 4.88924C43.4786 4.24018 42.4762 3.90582 41.2426 3.90582C40.0474 3.90582 39.103 4.1615 38.3898 4.69256C37.6765 5.2236 37.3296 5.97101 37.3296 6.9151C37.3296 7.58383 37.5416 8.13454 37.9657 8.52791C38.3898 8.92128 38.9488 9.21631 39.6427 9.43267C40.3366 9.62935 41.3582 9.84571 42.669 10.0817C43.999 10.3177 45.1363 10.6324 46.1001 11.0455C47.0639 11.4388 47.8349 12.0289 48.4518 12.8157C49.0493 13.6024 49.3577 14.6252 49.3577 15.9036C49.3577 17.1428 49.03 18.2441 48.3939 19.2276C47.7578 20.2111 46.8518 20.9584 45.6953 21.5091C44.5388 22.0598 43.228 22.3352 41.763 22.3352C40.1438 22.3352 38.7175 22.0402 37.4838 21.4305C36.2502 20.8404 35.2863 19.9946 34.5924 18.9325C33.8985 17.8704 33.5515 16.651 33.5322 15.2743L36.8092 15.3332ZM52.9238 9.68835H50.3215V6.85609H52.9238V2.56835H56.1235V6.83642H59.7281V9.66869H56.1235V17.6541C56.1235 18.2441 56.2392 18.6769 56.4705 18.9325C56.7018 19.1882 57.1066 19.3063 57.6656 19.3063H60.075V22.1582H57.0295C55.603 22.1582 54.5622 21.8239 53.9068 21.1354C53.2514 20.4667 52.9238 19.4045 52.9238 17.9884V9.68835ZM76.0162 6.85609V22.1582H73.2405L72.8935 19.8177C72.373 20.5847 71.6984 21.1748 70.8695 21.6468C70.0406 22.0992 69.0962 22.3352 67.9974 22.3352C66.6289 22.3352 65.4145 22.0205 64.3351 21.3911C63.2556 20.7617 62.4267 19.8569 61.8099 18.6769C61.2124 17.4968 60.9039 16.1003 60.9039 14.5071C60.9039 12.9533 61.2124 11.5765 61.8292 10.3964C62.446 9.21631 63.2941 8.29189 64.3543 7.64283C65.4337 6.99377 66.6481 6.67907 67.9782 6.67907C69.0962 6.67907 70.06 6.89542 70.8695 7.32813C71.6984 7.76084 72.3538 8.3509 72.855 9.0983L73.2405 6.85609H76.0162ZM71.6791 18.2048C72.4887 17.2607 72.8742 16.0609 72.8742 14.5661C72.8742 13.0516 72.4694 11.8126 71.6791 10.8685C70.8695 9.9047 69.8287 9.43267 68.5179 9.43267C67.2071 9.43267 66.147 9.9047 65.3567 10.8488C64.547 11.7928 64.1615 13.0124 64.1615 14.5071C64.1615 16.0216 64.5664 17.2607 65.3567 18.2048C66.1662 19.1489 67.2071 19.621 68.5179 19.621C69.8287 19.621 70.8888 19.1489 71.6791 18.2048ZM90.7044 20.8208C89.49 21.8239 87.9479 22.3352 86.0396 22.3352C84.5554 22.3352 83.2446 22.0205 82.1073 21.3715C80.9701 20.7224 80.1026 19.7979 79.4858 18.5981C78.869 17.3984 78.5606 16.0216 78.5606 14.4679C78.5606 12.914 78.869 11.5569 79.5051 10.3768C80.122 9.19664 81.0086 8.29189 82.1652 7.64283C83.3025 6.99377 84.6325 6.67907 86.136 6.67907C88.0058 6.67907 89.5478 7.19046 90.7429 8.19355C91.938 9.19664 92.6705 10.5734 92.9789 12.3043H89.7213C89.5092 11.4192 89.0852 10.7308 88.4299 10.2194C87.7937 9.70802 87.0034 9.43267 86.0589 9.43267C84.7867 9.43267 83.7651 9.9047 82.994 10.8291C82.223 11.7732 81.8375 12.973 81.8375 14.4679C81.8375 15.9823 82.223 17.2214 82.994 18.1655C83.7651 19.1096 84.7867 19.5816 86.0589 19.5816C87.0419 19.5816 87.8516 19.3259 88.4876 18.7948C89.1238 18.2638 89.5478 17.5558 89.7406 16.651H92.9596C92.6705 18.4408 91.8995 19.8177 90.7044 20.8208ZM95.5041 1.2309H98.6653V14.3301L105.527 6.85609H109.19L103.6 13.0124L109.556 22.1582H105.797L101.345 15.3725L98.6845 18.2441V22.1582H95.5233V1.2309H95.5041ZM113.161 17.1034C113.219 17.9098 113.585 18.5589 114.259 19.0702C114.934 19.5816 115.802 19.8373 116.881 19.8373C117.845 19.8373 118.616 19.6603 119.213 19.2866C119.811 18.9129 120.1 18.4212 120.1 17.8115C120.1 17.3001 119.965 16.9067 119.695 16.651C119.426 16.3953 119.059 16.1986 118.596 16.1003C118.133 15.9823 117.421 15.884 116.476 15.7659C115.165 15.6086 114.086 15.3922 113.238 15.1168C112.389 14.8415 111.695 14.4285 111.194 13.8384C110.675 13.2483 110.424 12.4616 110.424 11.4585C110.424 10.5144 110.675 9.68836 111.194 8.96062C111.715 8.23289 112.429 7.66249 113.334 7.26913C114.24 6.87576 115.281 6.67907 116.419 6.67907C118.307 6.67907 119.849 7.11178 121.025 7.95753C122.201 8.82294 122.837 10.0227 122.953 11.5765H119.869C119.791 10.8881 119.444 10.2981 118.847 9.86537C118.249 9.413 117.478 9.19664 116.553 9.19664C115.628 9.19664 114.896 9.37366 114.317 9.72769C113.758 10.0817 113.469 10.5734 113.469 11.1831C113.469 11.6355 113.604 11.9895 113.894 12.206C114.182 12.4419 114.529 12.5993 114.954 12.678C115.377 12.7763 116.071 12.8747 117.035 12.9926C118.327 13.1303 119.406 13.3467 120.293 13.6417C121.18 13.9368 121.873 14.3891 122.394 15.0185C122.915 15.6479 123.184 16.4937 123.184 17.5754C123.184 18.5392 122.915 19.3653 122.356 20.093C121.815 20.8208 121.064 21.3715 120.1 21.7648C119.137 22.1582 118.076 22.3549 116.881 22.3549C114.876 22.3549 113.238 21.8829 112.004 20.9584C110.771 20.034 110.115 18.7556 110.076 17.123H113.161V17.1034Z" fill="white"/>
<path d="M16.1889 16.2822L21.1356 24H17.4402L11.6333 14.9321L5.82644 24H2.1507L7.09731 16.3023H0V13.3804H23.2862V16.2822H16.1889Z" fill="white"/>
<path d="M23.2862 7.61713V10.539V10.5592H0V7.61713H6.96044L2.07249 0H5.76779L11.6333 9.18891L17.5185 0H21.2137L16.3258 7.61713H23.2862Z" fill="white"/>
</g>
<defs>
<clipPath id="clip0_4542_2320">
<rect width="123.349" height="24" fill="white"/>
</clipPath>
</defs>
</svg>
