<svg width="20" height="20" viewBox="0 0 20 20" fill="none" xmlns="http://www.w3.org/2000/svg">
<g clip-path="url(#clip0_3540_11909)">
<path d="M19.7001 12.42C19.3824 13.6939 18.8168 14.8927 18.0358 15.948C17.2547 17.0033 16.2734 17.8944 15.148 18.5704C14.0225 19.2464 12.7749 19.6941 11.4764 19.8879C10.1779 20.0818 8.85393 20.0179 7.5801 19.7C5.66184 19.2213 3.92859 18.1845 2.59955 16.7208C1.2705 15.257 0.405334 13.4321 0.113452 11.4766C-0.178429 9.52121 0.116081 7.52313 0.959742 5.73507C1.8034 3.94702 3.15832 2.44928 4.85318 1.43125C6.54803 0.413215 8.5067 -0.0793874 10.4815 0.0157288C12.4563 0.110845 14.3586 0.789408 15.9477 1.96561C17.5369 3.14182 18.7416 4.76284 19.4095 6.6237C20.0774 8.48457 20.1786 10.5017 19.7001 12.42Z" fill="#F7931A"/>
<path d="M14.41 8.57511C14.61 7.24511 13.595 6.53011 12.21 6.05177L12.66 4.25011L11.5617 3.97677L11.1234 5.73177C10.835 5.66011 10.54 5.59177 10.245 5.52511L10.685 3.75844L9.58837 3.48511L9.14003 5.28511L6.9267 4.73844L6.63503 5.91011C6.63503 5.91011 7.44837 6.09677 7.4317 6.10844C7.8767 6.22011 7.9567 6.51344 7.94337 6.74677L6.7117 11.6834C6.6567 11.8168 6.52003 12.0201 6.20837 11.9434C6.22003 11.9601 5.4117 11.7434 5.4117 11.7434L4.8667 13.0001L7.0767 13.5584L6.6217 15.3818L7.71837 15.6551L8.16837 13.8518C8.46837 13.9334 8.75837 14.0084 9.04337 14.0784L8.59337 15.8734L9.6917 16.1468L10.1467 14.3268C12.0167 14.6834 13.425 14.5401 14.0167 12.8501C14.4934 11.4884 13.9934 10.7018 13.0084 10.1901C13.725 10.0234 14.265 9.55177 14.4084 8.57844H14.41V8.57511ZM11.9017 12.0918C11.5617 13.4534 9.26837 12.7168 8.52503 12.5318L9.1267 10.1168C9.87003 10.3018 12.255 10.6701 11.9017 12.0918ZM12.2417 8.55677C11.9334 9.79677 10.0234 9.16677 9.40337 9.01177L9.94837 6.82011C10.5684 6.97511 12.565 7.26344 12.2417 8.55677Z" fill="white"/>
</g>
<defs>
<clipPath id="clip0_3540_11909">
<rect width="20" height="20" fill="white"/>
</clipPath>
</defs>
</svg>
