<svg width="20" height="20" viewBox="0 0 20 20" fill="none" xmlns="http://www.w3.org/2000/svg">
<g clip-path="url(#clip0_3540_11905)">
<path d="M10 20C15.5228 20 20 15.5228 20 10C20 4.47715 15.5228 0 10 0C4.47715 0 0 4.47715 0 10C0 15.5228 4.47715 20 10 20Z" fill="#5546FF"/>
<path d="M14.3464 15.3334L12.0832 11.9046H15.3334V10.6109H4.66675V11.9059H7.91575L5.65341 15.3334H7.34108L10.0001 11.3051L12.6587 15.3334H14.3464ZM15.3332 9.35525V8.04858H12.1492L14.3812 4.66675H12.6937L9.99992 8.74808L7.30625 4.66675H5.61875L7.85375 8.05175H4.66675V9.35525H15.3332Z" fill="white"/>
</g>
<defs>
<clipPath id="clip0_3540_11905">
<rect width="20" height="20" fill="white"/>
</clipPath>
</defs>
</svg>
