<svg width="405" height="92" viewBox="0 0 405 92" fill="none" xmlns="http://www.w3.org/2000/svg">
<g filter="url(#filter0_d_110_201)">
<path d="M58.0393 52L51.2498 41.7133H60.9999V37.8323H29V41.7178H38.747L31.9607 52H37.0237L45 39.9147L52.9763 52H58.0393ZM61 34.0657V30.1456H51.4479L58.144 20H53.0811L44.9999 32.2438L36.9189 20H31.856L38.5607 30.1547H29V34.0657H61Z" fill="black"/>
</g>
<path d="M87.632 45V26.688H91.52L97.832 37.704C98.024 38.024 98.192 38.352 98.336 38.688C98.48 39.024 98.64 39.488 98.816 40.08L99.2 39.984C99.088 39.216 99.032 38.464 99.032 37.728V26.688H102.488V45H98.576L92.264 33.912C92.056 33.56 91.88 33.232 91.736 32.928C91.608 32.608 91.464 32.168 91.304 31.608L90.92 31.68C91.032 32.448 91.088 33.208 91.088 33.96V45H87.632ZM109.469 45.264C108.157 45.264 107.093 44.92 106.277 44.232C105.461 43.528 105.053 42.552 105.053 41.304C105.053 39.96 105.565 38.936 106.589 38.232C107.325 37.72 108.373 37.336 109.733 37.08L113.741 36.336C113.741 35.536 113.525 34.904 113.093 34.44C112.693 34.008 112.093 33.792 111.293 33.792C110.669 33.792 110.117 33.976 109.637 34.344C109.173 34.712 108.885 35.208 108.773 35.832H105.557C105.781 34.344 106.437 33.208 107.525 32.424C108.613 31.64 109.877 31.248 111.317 31.248C112.133 31.248 112.893 31.368 113.597 31.608C114.301 31.832 114.901 32.168 115.397 32.616C115.893 33.048 116.253 33.552 116.477 34.128C116.701 34.704 116.837 35.28 116.885 35.856C116.949 36.432 116.981 37.144 116.981 37.992V45H113.741V44.616C113.741 44.2 113.845 43.776 114.053 43.344L113.693 43.152C113.405 43.744 113.005 44.208 112.493 44.544C111.773 45.024 110.765 45.264 109.469 45.264ZM110.261 42.72C110.853 42.72 111.429 42.592 111.989 42.336C112.501 42.096 112.909 41.744 113.213 41.28C113.357 41.04 113.469 40.808 113.549 40.584C113.629 40.344 113.717 40.016 113.813 39.6C113.845 39.408 113.893 39.272 113.957 39.192C114.037 39.096 114.149 39.04 114.293 39.024L114.221 38.64C112.941 38.896 112.117 39.064 111.749 39.144L110.597 39.36C109.733 39.52 109.109 39.776 108.725 40.128C108.437 40.416 108.293 40.768 108.293 41.184C108.293 41.68 108.469 42.064 108.821 42.336C109.189 42.592 109.669 42.72 110.261 42.72ZM119.785 45V26.688H123.025V34.32C123.025 34.704 123.009 35.048 122.977 35.352C122.961 35.656 122.897 36.024 122.785 36.456L123.073 36.576C123.345 36.224 123.745 35.768 124.273 35.208L127.945 31.536H132.049L127.009 36.456C126.705 36.76 126.337 37.008 125.905 37.2V37.536C126.337 37.76 126.705 38.072 127.009 38.472L132.481 45H128.497L124.273 39.888C123.585 38.992 123.185 38.464 123.073 38.304L122.785 38.4C122.897 38.848 122.961 39.232 122.977 39.552C123.009 39.872 123.025 40.232 123.025 40.632V45H119.785ZM137.852 45.264C136.54 45.264 135.476 44.92 134.66 44.232C133.844 43.528 133.436 42.552 133.436 41.304C133.436 39.96 133.948 38.936 134.972 38.232C135.708 37.72 136.756 37.336 138.116 37.08L142.124 36.336C142.124 35.536 141.908 34.904 141.476 34.44C141.076 34.008 140.476 33.792 139.676 33.792C139.052 33.792 138.5 33.976 138.02 34.344C137.556 34.712 137.268 35.208 137.156 35.832H133.94C134.164 34.344 134.82 33.208 135.908 32.424C136.996 31.64 138.26 31.248 139.7 31.248C140.516 31.248 141.276 31.368 141.98 31.608C142.684 31.832 143.284 32.168 143.78 32.616C144.276 33.048 144.636 33.552 144.86 34.128C145.084 34.704 145.22 35.28 145.268 35.856C145.332 36.432 145.364 37.144 145.364 37.992V45H142.124V44.616C142.124 44.2 142.228 43.776 142.436 43.344L142.076 43.152C141.788 43.744 141.388 44.208 140.876 44.544C140.156 45.024 139.148 45.264 137.852 45.264ZM138.644 42.72C139.236 42.72 139.812 42.592 140.372 42.336C140.884 42.096 141.292 41.744 141.596 41.28C141.74 41.04 141.852 40.808 141.932 40.584C142.012 40.344 142.1 40.016 142.196 39.6C142.228 39.408 142.276 39.272 142.34 39.192C142.42 39.096 142.532 39.04 142.676 39.024L142.604 38.64C141.324 38.896 140.5 39.064 140.132 39.144L138.98 39.36C138.116 39.52 137.492 39.776 137.108 40.128C136.82 40.416 136.676 40.768 136.676 41.184C136.676 41.68 136.852 42.064 137.204 42.336C137.572 42.592 138.052 42.72 138.644 42.72ZM148.144 45V31.536H151.384V31.968C151.384 32.224 151.36 32.432 151.312 32.592C151.264 32.752 151.168 32.912 151.024 33.072L151.36 33.312C151.872 32.56 152.416 32.032 152.992 31.728C153.584 31.408 154.272 31.248 155.056 31.248C155.856 31.248 156.584 31.432 157.24 31.8C157.896 32.152 158.304 32.688 158.464 33.408H158.776C159.064 32.608 159.552 32.048 160.24 31.728C160.944 31.408 161.712 31.248 162.544 31.248C164.016 31.248 165.12 31.68 165.856 32.544C166.592 33.408 166.96 34.616 166.96 36.168V45H163.72V36.576C163.72 34.8 163.016 33.912 161.608 33.912C160.936 33.912 160.4 34.128 160 34.56C159.696 34.896 159.48 35.328 159.352 35.856C159.24 36.384 159.184 37.056 159.184 37.872V45H155.944V36.576C155.944 35.68 155.76 35.016 155.392 34.584C155.024 34.136 154.496 33.912 153.808 33.912C153.136 33.912 152.592 34.144 152.176 34.608C151.904 34.912 151.704 35.32 151.576 35.832C151.448 36.344 151.384 37.024 151.384 37.872V45H148.144ZM176.159 45.264C174.815 45.264 173.623 44.968 172.583 44.376C171.543 43.784 170.727 42.952 170.135 41.88C169.559 40.808 169.271 39.576 169.271 38.184C169.271 36.84 169.559 35.64 170.135 34.584C170.727 33.528 171.543 32.712 172.583 32.136C173.623 31.544 174.815 31.248 176.159 31.248C177.503 31.248 178.695 31.544 179.735 32.136C180.791 32.728 181.607 33.552 182.183 34.608C182.775 35.648 183.071 36.84 183.071 38.184C183.071 39.576 182.783 40.808 182.207 41.88C181.631 42.952 180.815 43.784 179.759 44.376C178.719 44.968 177.519 45.264 176.159 45.264ZM176.159 42.48C177.215 42.48 178.071 42.08 178.727 41.28C179.383 40.48 179.711 39.448 179.711 38.184C179.711 36.968 179.383 35.976 178.727 35.208C178.071 34.424 177.215 34.032 176.159 34.032C175.471 34.032 174.855 34.208 174.311 34.56C173.767 34.912 173.343 35.408 173.039 36.048C172.735 36.672 172.583 37.384 172.583 38.184C172.583 39.464 172.911 40.504 173.567 41.304C174.239 42.088 175.103 42.48 176.159 42.48ZM189.563 45C187.467 45 186.419 44.016 186.419 42.048V34.128H184.427V31.536H186.419V26.688H189.659V31.536H192.251V34.128H189.659V41.064C189.659 41.48 189.723 41.792 189.851 42C189.995 42.208 190.299 42.312 190.763 42.312H192.227V45H189.563ZM200.652 45.264C199.308 45.264 198.116 44.968 197.076 44.376C196.036 43.784 195.22 42.952 194.628 41.88C194.052 40.808 193.764 39.576 193.764 38.184C193.764 36.84 194.052 35.64 194.628 34.584C195.22 33.528 196.036 32.712 197.076 32.136C198.116 31.544 199.308 31.248 200.652 31.248C201.996 31.248 203.188 31.544 204.228 32.136C205.284 32.728 206.1 33.552 206.676 34.608C207.268 35.648 207.564 36.84 207.564 38.184C207.564 39.576 207.276 40.808 206.7 41.88C206.124 42.952 205.308 43.784 204.252 44.376C203.212 44.968 202.012 45.264 200.652 45.264ZM200.652 42.48C201.708 42.48 202.564 42.08 203.22 41.28C203.876 40.48 204.204 39.448 204.204 38.184C204.204 36.968 203.876 35.976 203.22 35.208C202.564 34.424 201.708 34.032 200.652 34.032C199.964 34.032 199.348 34.208 198.804 34.56C198.26 34.912 197.836 35.408 197.532 36.048C197.228 36.672 197.076 37.384 197.076 38.184C197.076 39.464 197.404 40.504 198.06 41.304C198.732 42.088 199.596 42.48 200.652 42.48ZM216.562 45V26.688H223.81C226.05 26.688 227.666 27.184 228.658 28.176C229.41 28.944 229.786 29.976 229.786 31.272C229.786 32.424 229.506 33.368 228.946 34.104C228.386 34.824 227.666 35.184 226.786 35.184V35.568C227.522 35.568 228.186 35.736 228.778 36.072C229.37 36.408 229.842 36.888 230.194 37.512C230.546 38.136 230.722 38.856 230.722 39.672C230.722 41.336 230.178 42.632 229.09 43.56C228.386 44.12 227.578 44.504 226.666 44.712C225.77 44.904 224.922 45 224.122 45H216.562ZM223.594 34.296C224.49 34.296 225.162 34.104 225.61 33.72C226.074 33.32 226.306 32.752 226.306 32.016C226.306 31.312 226.09 30.784 225.658 30.432C225.146 30 224.274 29.784 223.042 29.784H220.018V34.296H223.594ZM223.69 41.904C224.298 41.904 224.842 41.856 225.322 41.76C225.818 41.664 226.234 41.472 226.57 41.184C227.018 40.816 227.242 40.224 227.242 39.408C227.242 38.464 226.954 37.848 226.378 37.56C225.802 37.256 225.034 37.104 224.074 37.104H220.018V41.904H223.69ZM236.224 45C235.2 45 234.424 44.768 233.896 44.304C233.368 43.824 233.104 43.072 233.104 42.048V26.688H236.344V41.088C236.344 41.536 236.424 41.856 236.584 42.048C236.76 42.224 237.048 42.312 237.448 42.312H238.312V45H236.224ZM246.308 45.264C244.964 45.264 243.772 44.968 242.732 44.376C241.692 43.784 240.876 42.952 240.284 41.88C239.708 40.808 239.42 39.576 239.42 38.184C239.42 36.84 239.708 35.64 240.284 34.584C240.876 33.528 241.692 32.712 242.732 32.136C243.772 31.544 244.964 31.248 246.308 31.248C247.652 31.248 248.844 31.544 249.884 32.136C250.94 32.728 251.756 33.552 252.332 34.608C252.924 35.648 253.22 36.84 253.22 38.184C253.22 39.576 252.932 40.808 252.356 41.88C251.78 42.952 250.964 43.784 249.908 44.376C248.868 44.968 247.668 45.264 246.308 45.264ZM246.308 42.48C247.364 42.48 248.22 42.08 248.876 41.28C249.532 40.48 249.86 39.448 249.86 38.184C249.86 36.968 249.532 35.976 248.876 35.208C248.22 34.424 247.364 34.032 246.308 34.032C245.62 34.032 245.004 34.208 244.46 34.56C243.916 34.912 243.492 35.408 243.188 36.048C242.884 36.672 242.732 37.384 242.732 38.184C242.732 39.464 243.06 40.504 243.716 41.304C244.388 42.088 245.252 42.48 246.308 42.48ZM261.916 45.264C260.572 45.264 259.38 44.968 258.34 44.376C257.316 43.784 256.516 42.952 255.94 41.88C255.364 40.808 255.076 39.576 255.076 38.184C255.076 36.84 255.364 35.64 255.94 34.584C256.516 33.528 257.316 32.712 258.34 32.136C259.38 31.544 260.572 31.248 261.916 31.248C263.532 31.248 264.9 31.664 266.02 32.496C267.156 33.312 267.892 34.424 268.228 35.832H264.7C264.492 35.208 264.148 34.728 263.668 34.392C263.188 34.056 262.604 33.888 261.916 33.888C260.86 33.888 260.004 34.28 259.348 35.064C258.708 35.848 258.388 36.888 258.388 38.184C258.388 39.528 258.708 40.608 259.348 41.424C260.004 42.224 260.86 42.624 261.916 42.624C262.684 42.624 263.308 42.44 263.788 42.072C264.268 41.688 264.596 41.152 264.772 40.464H268.276C267.972 41.952 267.244 43.128 266.092 43.992C264.94 44.84 263.548 45.264 261.916 45.264ZM270.558 45V26.688H273.798V34.32C273.798 34.704 273.782 35.048 273.75 35.352C273.734 35.656 273.67 36.024 273.558 36.456L273.846 36.576C274.118 36.224 274.518 35.768 275.046 35.208L278.718 31.536H282.822L277.782 36.456C277.478 36.76 277.11 37.008 276.678 37.2V37.536C277.11 37.76 277.478 38.072 277.782 38.472L283.254 45H279.27L275.046 39.888C274.358 38.992 273.958 38.464 273.846 38.304L273.558 38.4C273.67 38.848 273.734 39.232 273.75 39.552C273.782 39.872 273.798 40.232 273.798 40.632V45H270.558ZM298.693 45.336C297.413 45.336 296.189 45.128 295.021 44.712C293.853 44.296 292.861 43.624 292.045 42.696C291.245 41.752 290.773 40.536 290.629 39.048H294.205C294.477 40.248 295.021 41.104 295.837 41.616C296.653 42.128 297.613 42.384 298.717 42.384C299.725 42.384 300.533 42.176 301.141 41.76C301.749 41.328 302.053 40.696 302.053 39.864C302.053 39.272 301.861 38.8 301.477 38.448C301.093 38.08 300.605 37.808 300.013 37.632C299.437 37.44 298.645 37.232 297.637 37.008C296.261 36.704 295.149 36.392 294.301 36.072C293.469 35.752 292.749 35.248 292.141 34.56C291.533 33.872 291.229 32.928 291.229 31.728C291.229 30.576 291.509 29.6 292.069 28.8C292.629 27.984 293.397 27.376 294.373 26.976C295.349 26.56 296.461 26.352 297.709 26.352C298.925 26.352 300.053 26.568 301.093 27C302.133 27.416 303.005 28.064 303.709 28.944C304.413 29.808 304.861 30.872 305.053 32.136H301.525C301.301 31.192 300.837 30.488 300.133 30.024C299.445 29.544 298.613 29.304 297.637 29.304C296.741 29.304 296.021 29.496 295.477 29.88C294.933 30.248 294.661 30.768 294.661 31.44C294.661 31.968 294.845 32.392 295.213 32.712C295.581 33.032 296.037 33.28 296.581 33.456C297.125 33.632 297.885 33.832 298.861 34.056C300.253 34.36 301.389 34.68 302.269 35.016C303.165 35.352 303.933 35.896 304.573 36.648C305.213 37.4 305.533 38.416 305.533 39.696C305.533 41.44 304.925 42.816 303.709 43.824C302.509 44.832 300.837 45.336 298.693 45.336ZM311.204 45H307.964V31.536H311.204V45ZM309.596 30.048C309.036 30.048 308.564 29.88 308.18 29.544C307.796 29.208 307.604 28.76 307.604 28.2C307.604 27.672 307.796 27.232 308.18 26.88C308.564 26.528 309.036 26.352 309.596 26.352C310.14 26.352 310.604 26.528 310.988 26.88C311.388 27.232 311.588 27.672 311.588 28.2C311.588 28.744 311.396 29.192 311.012 29.544C310.628 29.88 310.156 30.048 309.596 30.048ZM314.152 45V31.536H317.392V31.968C317.392 32.224 317.368 32.432 317.32 32.592C317.272 32.752 317.176 32.912 317.032 33.072L317.368 33.312C317.88 32.56 318.424 32.032 319 31.728C319.592 31.408 320.28 31.248 321.064 31.248C321.864 31.248 322.592 31.432 323.248 31.8C323.904 32.152 324.312 32.688 324.472 33.408H324.784C325.072 32.608 325.56 32.048 326.247 31.728C326.952 31.408 327.72 31.248 328.552 31.248C330.024 31.248 331.128 31.68 331.864 32.544C332.6 33.408 332.968 34.616 332.968 36.168V45H329.728V36.576C329.728 34.8 329.024 33.912 327.616 33.912C326.944 33.912 326.408 34.128 326.008 34.56C325.704 34.896 325.488 35.328 325.359 35.856C325.248 36.384 325.192 37.056 325.192 37.872V45H321.952V36.576C321.952 35.68 321.768 35.016 321.4 34.584C321.032 34.136 320.504 33.912 319.816 33.912C319.144 33.912 318.6 34.144 318.184 34.608C317.912 34.912 317.712 35.32 317.584 35.832C317.456 36.344 317.392 37.024 317.392 37.872V45H314.152ZM340.535 45.264C338.439 45.264 337.039 44.52 336.335 43.032C336.079 42.504 335.919 41.968 335.855 41.424C335.791 40.864 335.759 40.152 335.759 39.288V31.536H338.999V39.312C338.999 40 339.047 40.56 339.143 40.992C339.255 41.408 339.423 41.744 339.647 42C339.999 42.4 340.567 42.6 341.351 42.6C342.263 42.6 342.951 42.328 343.415 41.784C343.687 41.48 343.879 41.064 343.991 40.536C344.119 39.992 344.183 39.272 344.183 38.376V31.536H347.423V45H344.183V44.568C344.183 44.328 344.207 44.128 344.255 43.968C344.319 43.792 344.415 43.616 344.543 43.44L344.207 43.224C343.695 43.96 343.151 44.488 342.575 44.808C341.999 45.112 341.319 45.264 340.535 45.264ZM353.458 45C352.434 45 351.658 44.768 351.13 44.304C350.602 43.824 350.338 43.072 350.338 42.048V26.688H353.578V41.088C353.578 41.536 353.658 41.856 353.818 42.048C353.994 42.224 354.282 42.312 354.682 42.312H355.546V45H353.458ZM361.516 45.264C360.204 45.264 359.14 44.92 358.324 44.232C357.508 43.528 357.1 42.552 357.1 41.304C357.1 39.96 357.612 38.936 358.636 38.232C359.372 37.72 360.42 37.336 361.78 37.08L365.788 36.336C365.788 35.536 365.572 34.904 365.14 34.44C364.74 34.008 364.14 33.792 363.34 33.792C362.716 33.792 362.164 33.976 361.684 34.344C361.22 34.712 360.932 35.208 360.82 35.832H357.604C357.828 34.344 358.484 33.208 359.572 32.424C360.66 31.64 361.924 31.248 363.364 31.248C364.18 31.248 364.94 31.368 365.644 31.608C366.348 31.832 366.948 32.168 367.444 32.616C367.94 33.048 368.3 33.552 368.524 34.128C368.748 34.704 368.884 35.28 368.932 35.856C368.996 36.432 369.028 37.144 369.028 37.992V45H365.788V44.616C365.788 44.2 365.892 43.776 366.1 43.344L365.74 43.152C365.452 43.744 365.052 44.208 364.54 44.544C363.82 45.024 362.812 45.264 361.516 45.264ZM362.308 42.72C362.9 42.72 363.476 42.592 364.036 42.336C364.548 42.096 364.956 41.744 365.26 41.28C365.404 41.04 365.516 40.808 365.596 40.584C365.676 40.344 365.764 40.016 365.86 39.6C365.892 39.408 365.94 39.272 366.004 39.192C366.084 39.096 366.196 39.04 366.34 39.024L366.268 38.64C364.988 38.896 364.164 39.064 363.796 39.144L362.644 39.36C361.78 39.52 361.156 39.776 360.772 40.128C360.484 40.416 360.34 40.768 360.34 41.184C360.34 41.68 360.516 42.064 360.868 42.336C361.236 42.592 361.716 42.72 362.308 42.72ZM376.032 45C373.936 45 372.888 44.016 372.888 42.048V34.128H370.896V31.536H372.888V26.688H376.128V31.536H378.72V34.128H376.128V41.064C376.128 41.48 376.192 41.792 376.32 42C376.464 42.208 376.768 42.312 377.232 42.312H378.696V45H376.032ZM387.12 45.264C385.776 45.264 384.584 44.968 383.544 44.376C382.504 43.784 381.688 42.952 381.096 41.88C380.52 40.808 380.232 39.576 380.232 38.184C380.232 36.84 380.52 35.64 381.096 34.584C381.688 33.528 382.504 32.712 383.544 32.136C384.584 31.544 385.776 31.248 387.12 31.248C388.464 31.248 389.656 31.544 390.696 32.136C391.752 32.728 392.568 33.552 393.144 34.608C393.736 35.648 394.032 36.84 394.032 38.184C394.032 39.576 393.744 40.808 393.168 41.88C392.592 42.952 391.776 43.784 390.72 44.376C389.68 44.968 388.48 45.264 387.12 45.264ZM387.12 42.48C388.176 42.48 389.032 42.08 389.688 41.28C390.344 40.48 390.672 39.448 390.672 38.184C390.672 36.968 390.344 35.976 389.688 35.208C389.032 34.424 388.176 34.032 387.12 34.032C386.432 34.032 385.816 34.208 385.272 34.56C384.728 34.912 384.304 35.408 384 36.048C383.696 36.672 383.544 37.384 383.544 38.184C383.544 39.464 383.872 40.504 384.528 41.304C385.2 42.088 386.064 42.48 387.12 42.48ZM396.441 45V31.536H399.681V31.968C399.681 32.224 399.657 32.432 399.609 32.592C399.561 32.752 399.465 32.912 399.321 33.072L399.657 33.312C400.153 32.576 400.705 32.048 401.313 31.728C401.921 31.408 402.657 31.248 403.521 31.248H403.905V34.368H403.161C402.137 34.368 401.337 34.64 400.761 35.184C400.393 35.552 400.121 36.024 399.945 36.6C399.769 37.16 399.681 37.88 399.681 38.76V45H396.441Z" fill="black"/>
<defs>
<filter id="filter0_d_110_201" x="0" y="0" width="92" height="92" filterUnits="userSpaceOnUse" color-interpolation-filters="sRGB">
<feFlood flood-opacity="0" result="BackgroundImageFix"/>
<feColorMatrix in="SourceAlpha" type="matrix" values="0 0 0 0 0 0 0 0 0 0 0 0 0 0 0 0 0 0 127 0" result="hardAlpha"/>
<feOffset dx="1" dy="10"/>
<feGaussianBlur stdDeviation="15"/>
<feComposite in2="hardAlpha" operator="out"/>
<feColorMatrix type="matrix" values="0 0 0 0 0 0 0 0 0 0 0 0 0 0 0 0 0 0 0.25 0"/>
<feBlend mode="normal" in2="BackgroundImageFix" result="effect1_dropShadow_110_201"/>
<feBlend mode="normal" in="SourceGraphic" in2="effect1_dropShadow_110_201" result="shape"/>
</filter>
</defs>
</svg>
